<svg width="640" height="640" viewBox="0 0 640 640" xmlns="http://www.w3.org/2000/svg" role="img" aria-label="Digital innovation illustration">
  <defs>
    <linearGradient id="bg" x1="0%" y1="0%" x2="100%" y2="100%">
      <stop offset="0%" stop-color="#dbeafe"/>
      <stop offset="100%" stop-color="#f5f3ff"/>
    </linearGradient>
    <linearGradient id="accent" x1="0%" y1="0%" x2="100%" y2="0%">
      <stop offset="0%" stop-color="#2563eb"/>
      <stop offset="100%" stop-color="#7c3aed"/>
    </linearGradient>
    <linearGradient id="spark" x1="0%" y1="0%" x2="0%" y2="100%">
      <stop offset="0%" stop-color="#34d399"/>
      <stop offset="100%" stop-color="#0ea5e9"/>
    </linearGradient>
    <filter id="shadow" x="-20%" y="-20%" width="140%" height="140%">
      <feDropShadow dx="0" dy="12" stdDeviation="18" flood-color="#1d4ed81a"/>
    </filter>
  </defs>
  <rect width="640" height="640" rx="48" fill="url(#bg)"/>
  <circle cx="140" cy="160" r="70" fill="url(#accent)" opacity=".2"/>
  <circle cx="540" cy="120" r="90" fill="#c7d2fe" opacity=".35"/>
  <circle cx="520" cy="520" r="70" fill="#a5b4fc" opacity=".25"/>
  <g filter="url(#shadow)">
    <rect x="120" y="180" width="400" height="280" rx="32" fill="#fff"/>
    <rect x="150" y="220" width="180" height="24" rx="12" fill="#e0e7ff"/>
    <rect x="150" y="266" width="230" height="18" rx="9" fill="#cbd5f5"/>
    <rect x="150" y="300" width="310" height="18" rx="9" fill="#dbeafe"/>
    <rect x="150" y="334" width="260" height="18" rx="9" fill="#c7d2fe"/>
    <rect x="150" y="368" width="200" height="18" rx="9" fill="#bfdbfe"/>
    <rect x="150" y="402" width="180" height="18" rx="9" fill="#93c5fd"/>
    <rect x="360" y="220" width="130" height="130" rx="26" fill="url(#accent)"/>
    <circle cx="425" cy="285" r="34" fill="#fff" opacity=".3"/>
    <path d="M408 284l17 12 26-33" stroke="#fff" stroke-width="6" stroke-linecap="round" stroke-linejoin="round"/>
  </g>
  <g filter="url(#shadow)">
    <rect x="214" y="480" width="212" height="80" rx="24" fill="#fff"/>
    <rect x="238" y="506" width="128" height="12" rx="6" fill="#c7d2fe"/>
    <rect x="238" y="530" width="164" height="12" rx="6" fill="#bfdbfe"/>
    <circle cx="394" cy="520" r="20" fill="url(#spark)"/>
  </g>
  <g opacity=".8">
    <path d="M120 470c40-80 120-140 220-140s160 40 200 108" fill="none" stroke="url(#accent)" stroke-width="3" stroke-dasharray="8 14"/>
    <circle cx="120" cy="470" r="6" fill="#2563eb"/>
    <circle cx="540" cy="438" r="6" fill="#7c3aed"/>
  </g>
</svg>

