<svg width="640" height="480" viewBox="0 0 640 480" xmlns="http://www.w3.org/2000/svg" role="img" aria-label="Team collaboration illustration">
  <defs>
    <linearGradient id="bg2" x1="0%" y1="0%" x2="100%" y2="100%">
      <stop offset="0%" stop-color="#e0f2fe"/>
      <stop offset="100%" stop-color="#ede9fe"/>
    </linearGradient>
    <linearGradient id="bubble" x1="0%" y1="0%" x2="100%" y2="0%">
      <stop offset="0%" stop-color="#2563eb"/>
      <stop offset="100%" stop-color="#06b6d4"/>
    </linearGradient>
    <linearGradient id="card" x1="0%" y1="0%" x2="100%" y2="100%">
      <stop offset="0%" stop-color="#ffffff"/>
      <stop offset="100%" stop-color="#f4f5ff"/>
    </linearGradient>
    <filter id="cardShadow" x="-20%" y="-20%" width="140%" height="140%">
      <feDropShadow dx="0" dy="10" stdDeviation="15" flood-color="#1d4ed820"/>
    </filter>
  </defs>
  <rect width="640" height="480" rx="40" fill="url(#bg2)"/>
  <circle cx="520" cy="80" r="60" fill="#c7d2fe" opacity=".35"/>
  <circle cx="100" cy="380" r="80" fill="#bae6fd" opacity=".3"/>
  <g filter="url(#cardShadow)">
    <rect x="80" y="120" width="480" height="260" rx="32" fill="url(#card)"/>
    <rect x="112" y="156" width="180" height="18" rx="9" fill="#cbd5f5"/>
    <rect x="112" y="186" width="220" height="14" rx="7" fill="#dbeafe"/>
    <rect x="112" y="214" width="260" height="14" rx="7" fill="#c7d2fe"/>
    <rect x="112" y="242" width="300" height="14" rx="7" fill="#dbeafe"/>
    <rect x="112" y="270" width="200" height="14" rx="7" fill="#bfdbfe"/>
    <rect x="112" y="298" width="240" height="14" rx="7" fill="#c7d2fe"/>
    <rect x="112" y="326" width="160" height="14" rx="7" fill="#bfdbfe"/>
    <g transform="translate(360 180)">
      <circle cx="60" cy="60" r="60" fill="url(#bubble)"/>
      <path d="M40 60l18 18 32-40" stroke="#fff" stroke-width="6" stroke-linecap="round" stroke-linejoin="round"/>
    </g>
  </g>
  <g opacity=".9">
    <circle cx="170" cy="384" r="26" fill="#2563eb"/>
    <circle cx="230" cy="404" r="18" fill="#7c3aed"/>
    <circle cx="420" cy="392" r="22" fill="#0ea5e9"/>
  </g>
</svg>

